<svg width="96" height="96" xmlns="http://www.w3.org/2000/svg" xmlns:xlink="http://www.w3.org/1999/xlink" overflow="hidden"><defs><clipPath id="clip0"><rect x="209" y="587" width="96" height="96"/></clipPath></defs><g clip-path="url(#clip0)" transform="translate(-209 -587)"><path d="M257 647C250.4 647 245 641.6 245 635 245 628.4 250.4 623 257 623 263.6 623 269 628.4 269 635 269 641.6 263.6 647 257 647ZM284 627.5C283.4 625.3 282.5 623.2 281.4 621.3L283.9 613.8 278.2 608.1 270.7 610.6C268.7 609.5 266.6 608.6 264.4 608L261 601 253 601 249.5 608C247.3 608.6 245.2 609.5 243.3 610.6L235.8 608.1 230.1 613.8 232.6 621.3C231.5 623.3 230.6 625.4 230 627.6L223 631 223 639 230 642.5C230.6 644.7 231.5 646.8 232.6 648.7L230.1 656.2 235.8 661.9 243.3 659.4C245.3 660.5 247.4 661.4 249.6 662L253.1 669 261.1 669 264.6 662C266.8 661.4 268.9 660.5 270.8 659.4L278.3 661.9 284 656.2 281.5 648.7C282.6 646.7 283.5 644.6 284.1 642.4L291.1 638.9 291.1 630.9 284 627.5Z"/></g></svg>